<svg width="120" height="120" viewBox="0 0 120 120" fill="none" xmlns="http://www.w3.org/2000/svg">
<g id="images 1" clip-path="url(#clip0_117_54)">
<g id="Layer 2">
<g id="Icons">
<path id="Vector" d="M16.5025 57.5108V76.919L32.4992 69.6992V50.3009L16.5025 57.5108ZM60 14.9356V34.3438L76.0066 27.124V7.71573L60 14.9356ZM60 100.096V119.504L76.0066 112.284V92.8761L60 100.096ZM103.498 57.5108V76.919L119.504 69.6992V50.3009L103.498 57.5108Z" fill="#E4E8F8"/>
<path id="Vector_2" d="M16.5025 43.081L0.49588 50.3008L16.5025 57.5107L32.4992 50.3008L20.9554 45.0843" stroke="#24B5DF" stroke-linejoin="round"/>
<path id="Vector_3" d="M32.4992 50.3008V69.6992L16.5025 76.919L0.49588 69.6992V50.3008M60 14.9356L76.0066 7.71572L60 0.49588L44.0033 7.71572L60 14.9356Z" stroke="#24B5DF" stroke-linejoin="round"/>
<path id="Vector_4" d="M76.0066 7.71573V27.124L60 34.3438L44.0033 27.124V7.71573M60 85.6661L44.0033 92.8761L60 100.096L76.0066 92.8761L60 85.6661Z" stroke="#24B5DF" stroke-linejoin="round"/>
<path id="Vector_5" d="M76.0066 92.876V112.284L60 119.504L44.0033 112.284V92.876M103.498 43.081L87.5009 50.3008L103.498 57.5107L119.504 50.3008L107.96 45.0843" stroke="#24B5DF" stroke-linejoin="round"/>
<path id="Vector_6" d="M119.504 50.3008V69.6992L103.498 76.919L87.5009 69.6992V50.3008M16.4926 50.3008V28.3934C16.4926 25.4817 17.6492 22.6893 19.7081 20.6304C21.767 18.5715 24.5594 17.4149 27.4711 17.4149H39.0546M103.507 50.3008V28.3934C103.507 25.4817 102.351 22.6893 100.292 20.6304C98.2331 18.5715 95.4406 17.4149 92.529 17.4149H80.9554M16.4926 76.919V91.6066C16.4926 94.5183 17.6492 97.3107 19.7081 99.3696C21.767 101.428 24.5594 102.585 27.4711 102.585H39.0546M103.507 76.919V91.6066C103.507 94.5183 102.351 97.3107 100.292 99.3696C98.2331 101.428 95.4406 102.585 92.529 102.585H80.9554" stroke="#24B5DF" stroke-linejoin="round"/>
<path id="Vector_7" d="M49.2298 68.0529L41.1769 60L49.2298 51.9471M70.7703 68.0529L78.8232 60L70.7703 51.9471M54.6744 75.2529L65.3256 44.757" stroke="#24B5DF" stroke-linejoin="round"/>
</g>
</g>
</g>
<defs>
<clipPath id="clip0_117_54">
<rect width="120" height="120" fill="white"/>
</clipPath>
</defs>
</svg>
