<svg width="120" height="120" viewBox="0 0 120 120" fill="none" xmlns="http://www.w3.org/2000/svg">
<g id="1608639_code_icon 1" clip-path="url(#clip0_117_86)">
<path id="Vector" d="M37.0312 93.683L33.683 97.0312C33.2366 97.4777 32.7232 97.7009 32.1429 97.7009C31.5625 97.7009 31.0491 97.4777 30.6027 97.0312L-0.602677 65.8259C-1.04911 65.3795 -1.27232 64.8661 -1.27232 64.2857C-1.27232 63.7054 -1.04911 63.192 -0.602677 62.7455L30.6027 31.5402C31.0491 31.0938 31.5625 30.8705 32.1429 30.8705C32.7232 30.8705 33.2366 31.0938 33.683 31.5402L37.0312 34.8884C37.4777 35.3348 37.7009 35.8482 37.7009 36.4286C37.7009 37.0089 37.4777 37.5223 37.0312 37.9688L10.7143 64.2857L37.0312 90.6027C37.4777 91.0491 37.7009 91.5625 37.7009 92.1429C37.7009 92.7232 37.4777 93.2366 37.0312 93.683ZM76.6071 22.2321L51.6295 108.683C51.4509 109.263 51.1049 109.699 50.5915 109.989C50.0781 110.279 49.5536 110.335 49.0179 110.156L44.8661 109.018C44.2857 108.839 43.8504 108.493 43.5603 107.98C43.2701 107.467 43.2143 106.92 43.3929 106.339L68.3705 19.8884C68.5491 19.308 68.8951 18.8728 69.4085 18.5826C69.9219 18.2924 70.4464 18.2366 70.9821 18.4152L75.1339 19.5536C75.7143 19.7321 76.1496 20.0781 76.4397 20.5915C76.7299 21.1049 76.7857 21.6518 76.6071 22.2321ZM120.603 65.8259L89.3973 97.0312C88.9509 97.4777 88.4375 97.7009 87.8571 97.7009C87.2768 97.7009 86.7634 97.4777 86.317 97.0312L82.9687 93.683C82.5223 93.2366 82.2991 92.7232 82.2991 92.1429C82.2991 91.5625 82.5223 91.0491 82.9687 90.6027L109.286 64.2857L82.9687 37.9688C82.5223 37.5223 82.2991 37.0089 82.2991 36.4286C82.2991 35.8482 82.5223 35.3348 82.9687 34.8884L86.317 31.5402C86.7634 31.0938 87.2768 30.8705 87.8571 30.8705C88.4375 30.8705 88.9509 31.0938 89.3973 31.5402L120.603 62.7455C121.049 63.192 121.272 63.7054 121.272 64.2857C121.272 64.8661 121.049 65.3795 120.603 65.8259Z" fill="#24B5DF"/>
</g>
<defs>
<clipPath id="clip0_117_86">
<rect width="120" height="120" fill="white"/>
</clipPath>
</defs>
</svg>
