<svg width="120" height="120" viewBox="0 0 120 120" fill="none" xmlns="http://www.w3.org/2000/svg">
<g id="Untitled 1">
<g id="429291">
<path id="Vector" d="M32.2107 34.0353C31.4574 34.4702 30.85 35.1187 30.4653 35.8988C30.0806 36.6789 29.9359 37.5556 30.0494 38.418C30.1629 39.2804 30.5296 40.0897 31.1032 40.7437C31.6767 41.3976 32.4312 41.8668 33.2714 42.0919C34.1116 42.317 34.9997 42.2879 35.8233 42.0083C36.647 41.7287 37.3692 41.2111 37.8987 40.521C38.4282 39.8309 38.7411 38.9993 38.798 38.1314C38.8548 37.2634 38.653 36.3981 38.2181 35.6448C37.6348 34.6348 36.6743 33.8979 35.5477 33.596C34.4211 33.2942 33.2208 33.4522 32.2107 34.0353ZM51.922 38.8068C51.6333 38.4768 51.3287 38.146 51.0081 37.8142C51.232 37.5789 51.4487 37.3437 51.6582 37.1087C55.6125 32.6658 57.2814 28.2101 55.735 25.5313C54.2522 22.963 49.8412 22.1976 44.3191 23.2713C43.7752 23.3777 43.2343 23.4978 42.6964 23.6314C42.5934 23.2764 42.4839 22.9235 42.3678 22.5725C40.4944 16.9273 37.4683 13.2552 34.3753 13.2571C31.4095 13.2585 28.5431 16.6974 26.7144 22.0174C26.5345 22.5422 26.3681 23.0714 26.2152 23.605C25.8555 23.5167 25.4943 23.4352 25.1317 23.3604C19.3055 22.1642 14.6128 22.9521 13.0694 25.6323C11.5895 28.2025 13.1372 32.4037 16.8333 36.6448C17.1999 37.0644 17.5768 37.4746 17.9641 37.8754C17.5075 38.3457 17.0752 38.8158 16.6722 39.2832C13.0657 43.4645 11.6064 47.5969 13.084 50.1561C14.6099 52.7995 19.2366 53.6635 24.8679 52.5554C25.3243 52.4649 25.7781 52.3631 26.2294 52.25C26.3948 52.8272 26.5761 53.3993 26.7735 53.9664C28.5941 59.1796 31.4445 62.5078 34.3998 62.5067C37.4519 62.5049 40.5115 58.9291 42.3653 53.4972C42.5117 53.0679 42.6502 52.6221 42.7816 52.1631C43.3646 52.3082 43.9514 52.4369 44.5419 52.5492C49.9676 53.5758 54.2748 52.7684 55.7497 50.2074C57.2727 47.5621 55.7024 43.1253 51.922 38.8068ZM14.8926 26.6821C15.8428 25.0323 19.6778 24.3886 24.7082 25.4214C25.0297 25.4875 25.3567 25.5613 25.6892 25.643C25.1981 27.8155 24.8515 30.0183 24.6519 32.2367C22.8368 33.5136 21.1062 34.9066 19.4711 36.4071C19.1108 36.0345 18.7602 35.6529 18.4192 35.2623C15.2523 31.6284 14.0007 28.231 14.8926 26.6821ZM24.4634 40.7874C23.2061 39.8354 22.0377 38.8602 20.9772 37.8792C22.037 36.9044 23.2061 35.9324 24.4608 34.983C24.4157 35.9502 24.3934 36.9181 24.3938 37.8867C24.3945 38.854 24.4177 39.8209 24.4634 40.7874ZM24.4619 50.491C22.3276 50.9656 20.1241 51.0434 17.9617 50.7204C17.3689 50.6742 16.7918 50.507 16.2662 50.229C15.7406 49.9511 15.2776 49.5682 14.9057 49.1043C14.0092 47.5512 15.1809 44.2335 18.2653 40.6574C18.6531 40.2092 19.0536 39.7728 19.4668 39.348C21.1022 40.8563 22.8355 42.2549 24.6555 43.5344C24.8579 45.7811 25.2085 48.0121 25.7051 50.2126C25.293 50.3156 24.8786 50.4085 24.4619 50.491ZM41.9482 30.6943C41.1223 30.1739 40.2862 29.6702 39.4399 29.1833C38.6071 28.7039 37.7643 28.2425 36.9114 27.7992C38.3717 27.1852 39.8071 26.6608 41.1928 26.2335C41.5195 27.7068 41.7716 29.1956 41.9482 30.6943ZM28.7041 22.7012C30.2708 18.1429 32.589 15.3618 34.3765 15.361C36.2802 15.3601 38.7536 18.3609 40.371 23.2351C40.476 23.5528 40.5753 23.8723 40.6689 24.1937C38.5441 24.8527 36.4652 25.6516 34.4458 26.5852C32.4349 25.6407 30.3626 24.8328 28.2429 24.1672C28.3846 23.6749 28.5383 23.1862 28.7041 22.7012ZM27.7182 26.2073C29.1637 26.6623 30.5852 27.19 31.9775 27.7882C30.2524 28.6785 28.5719 29.6482 26.9359 30.6974C27.1336 29.1263 27.3966 27.6211 27.7182 26.2073ZM26.9395 45.0715C27.7553 45.5937 28.5831 46.0967 29.4228 46.5803C30.2793 47.0735 31.1472 47.5459 32.0265 47.9976C30.6236 48.6165 29.1898 49.1631 27.7308 49.635C27.4054 48.2016 27.1396 46.6699 26.9395 45.0715ZM40.374 52.8172C39.7189 54.9033 38.6854 56.8509 37.3252 58.5628C36.9891 59.0532 36.5558 59.4696 36.0525 59.7859C35.5492 60.1023 34.9863 60.3121 34.3987 60.4024C32.6055 60.4034 30.3167 57.7306 28.7598 53.2724C28.5764 52.7453 28.4078 52.2134 28.2537 51.6768C30.3836 50.9897 32.4643 50.159 34.4818 49.1904C36.5177 50.13 38.6132 50.9349 40.7546 51.5999C40.6376 52.0087 40.5108 52.4144 40.374 52.8172ZM41.266 49.5564C39.8643 49.123 38.4081 48.5898 36.9268 47.9668C37.7618 47.5273 38.603 47.0632 39.4501 46.5745C40.3195 46.0725 41.1666 45.5579 41.9917 45.0308C41.8273 46.5507 41.5851 48.0612 41.266 49.5564ZM42.365 37.8776C42.3668 39.3731 42.3201 40.8674 42.2249 42.3604C41.0117 43.1815 39.7309 43.9832 38.3982 44.7526C37.0711 45.5188 35.7562 46.2229 34.4663 46.8602C33.109 46.2097 31.7778 45.5087 30.4728 44.7572C29.1751 44.0103 27.9072 43.2149 26.669 42.3711C26.5559 40.8785 26.4989 39.3832 26.498 37.8852C26.497 36.3882 26.553 34.8932 26.6656 33.3994C27.8785 32.5711 29.15 31.77 30.4646 31.011C31.7853 30.2484 33.1167 29.5473 34.4408 28.9118C35.7814 29.5634 37.0979 30.2616 38.3901 31.0065C39.6869 31.7518 40.9584 32.5387 42.2045 33.3672C42.3115 34.8684 42.3649 36.3719 42.365 37.8776ZM44.7209 25.3367C49.4521 24.4164 53.0194 25.0355 53.9131 26.5833C54.8651 28.2322 53.5007 31.8739 50.0868 35.7101C49.8982 35.9217 49.7024 36.1344 49.4996 36.3478C47.8362 34.8441 46.0723 33.4555 44.2202 32.1915C44.0333 29.9973 43.6997 27.8181 43.2217 25.6685C43.7312 25.5432 44.2309 25.4326 44.7209 25.3367ZM44.4011 34.9027C45.6504 35.8148 46.8515 36.7911 47.9996 37.8277C46.8566 38.8813 45.6592 39.8745 44.4125 40.8031C44.4507 39.8281 44.4695 38.8526 44.4688 37.8767C44.4684 36.8851 44.4458 35.8938 44.4011 34.9027ZM53.9262 49.1573C53.0312 50.7115 49.5728 51.3596 44.9327 50.4817C44.4009 50.3814 43.8553 50.2619 43.2958 50.1233C43.7622 47.946 44.081 45.7397 44.2499 43.5195C46.0989 42.2334 47.8572 40.8217 49.5124 39.2942C49.802 39.5951 50.0775 39.8946 50.3389 40.1927C51.819 41.802 52.9902 43.6699 53.7939 45.7033C54.0509 46.2394 54.1953 46.8225 54.218 47.4166C54.2408 48.0107 54.1414 48.6031 53.9262 49.1573Z" fill="#24B5DF"/>
</g>
<g id="814301">
<path id="Vector_2" d="M84.9115 17.0689L85.3272 15.6141C85.0555 15.5364 84.7676 15.5364 84.4959 15.6141L84.9115 17.0689ZM63.7292 23.121L63.3135 21.6662C62.6037 21.869 62.1439 22.5544 62.2254 23.2881L63.7292 23.121ZM66.7552 50.3554L65.2515 50.5225C65.3081 51.0327 65.6195 51.4793 66.0786 51.7087L66.7552 50.3554ZM84.9115 59.4336L84.2349 60.7868C84.6609 60.9999 85.1622 60.9999 85.5882 60.7868L84.9115 59.4336ZM103.068 50.3554L103.744 51.7087C104.204 51.4793 104.515 51.0327 104.571 50.5225L103.068 50.3554ZM106.094 23.121L107.598 23.2881C107.679 22.5544 107.219 21.869 106.51 21.6662L106.094 23.121ZM84.9115 24.634L86.2977 24.0276L84.9115 20.8592L83.5254 24.0276L84.9115 24.634ZM84.4959 15.6141L63.3135 21.6662L64.1448 24.5758L85.3272 18.5237L84.4959 15.6141ZM62.2254 23.2881L65.2515 50.5225L68.259 50.1884L65.2329 22.9539L62.2254 23.2881ZM66.0786 51.7087L84.2349 60.7868L85.5882 58.0804L67.4319 49.0022L66.0786 51.7087ZM85.5882 60.7868L103.744 51.7087L102.391 49.0022L84.2349 58.0804L85.5882 60.7868ZM104.571 50.5225L107.598 23.2881L104.59 22.9539L101.564 50.1884L104.571 50.5225ZM106.51 21.6662L85.3272 15.6141L84.4959 18.5237L105.678 24.5758L106.51 21.6662ZM75.7065 49.4488L86.2977 25.2405L83.5254 24.0276L72.9342 48.236L75.7065 49.4488ZM83.5254 25.2405L94.1165 49.4488L96.889 48.236L86.2977 24.0276L83.5254 25.2405ZM77.3464 42.7903H92.4767V39.7643H77.3464V42.7903Z" fill="#24B5DF"/>
</g>
<g id="80982">
<path id="Vector_3" d="M50.4636 75.1353L51.6328 74.2909C51.2666 73.7838 50.6151 73.5706 50.0199 73.763C49.4246 73.9555 49.0214 74.5098 49.0214 75.1353H50.4636ZM59.1172 102.538C48.7622 102.538 40.3678 94.1442 40.3678 83.789H37.4832C37.4832 95.737 47.1691 105.423 59.1172 105.423V102.538ZM77.8667 83.789C77.8667 94.1442 69.4724 102.538 59.1172 102.538V105.423C71.0653 105.423 80.7513 95.737 80.7513 83.789H77.8667ZM59.1172 65.0395C69.4724 65.0395 77.8667 73.4339 77.8667 83.789H80.7513C80.7513 71.8408 71.0653 62.1549 59.1172 62.1549V65.0395ZM59.1172 62.1549C47.1691 62.1549 37.4832 71.8408 37.4832 83.789H40.3678C40.3678 73.4339 48.7622 65.0395 59.1172 65.0395V62.1549ZM51.9059 96.7694V75.1353H49.0214V96.7694H51.9059ZM49.2944 75.9798L68.044 101.94L70.3822 100.252L51.6328 74.2909L49.2944 75.9798ZM66.3286 73.6931V91.0003H69.2131V73.6931H66.3286Z" fill="#24B5DF"/>
</g>
</g>
</svg>
